<?xml version="1.0" encoding="UTF-8" standalone="no"?>
<svg
   xmlns:dc="http://purl.org/dc/elements/1.1/"
   xmlns:cc="http://creativecommons.org/ns#"
   xmlns:rdf="http://www.w3.org/1999/02/22-rdf-syntax-ns#"
   xmlns:svg="http://www.w3.org/2000/svg"
   xmlns="http://www.w3.org/2000/svg"
   xmlns:sodipodi="http://sodipodi.sourceforge.net/DTD/sodipodi-0.dtd"
   xmlns:inkscape="http://www.inkscape.org/namespaces/inkscape"
   height="366pt"
   viewBox="-8 0 366 366.1523"
   width="366pt"
   id="svg2"
   version="1.1"
   inkscape:version="0.91 r13725"
   sodipodi:docname="event.svg">
  <metadata
     id="metadata18">
    <rdf:RDF>
      <cc:Work
         rdf:about="">
        <dc:format>image/svg+xml</dc:format>
        <dc:type
           rdf:resource="http://purl.org/dc/dcmitype/StillImage" />
      </cc:Work>
    </rdf:RDF>
  </metadata>
  <defs
     id="defs16" />
  <sodipodi:namedview
     pagecolor="#ffffff"
     bordercolor="#666666"
     borderopacity="1"
     objecttolerance="10"
     gridtolerance="10"
     guidetolerance="10"
     inkscape:pageopacity="0"
     inkscape:pageshadow="2"
     inkscape:window-width="1920"
     inkscape:window-height="1017"
     id="namedview14"
     showgrid="false"
     inkscape:zoom="0.51584699"
     inkscape:cx="158.84526"
     inkscape:cy="120.86432"
     inkscape:window-x="-8"
     inkscape:window-y="-8"
     inkscape:window-maximized="1"
     inkscape:current-layer="svg2" />
  <path
     d="m322.390625 42.851562h-14.703125c-1.488281 16.910157-15.652344 29.878907-32.625 29.878907s-31.136719-12.96875-32.625-29.878907h-135.476562c-1.492188 16.910157-15.65625 29.878907-32.628907 29.878907-16.976562 0-31.136719-12.96875-32.628906-29.878907h-14.699219c-14.863281.019532-26.910156 12.066407-26.9296872 26.929688v57.839844h349.2421872v-57.835938c-.011718-14.867187-12.058594-26.917968-26.925781-26.933594zm0 0"
     id="path4"
     style="fill:#ea3f3f;fill-opacity:1" />
  <path
     d="m275.058594 58.734375c10.355468-.007813 18.75-8.402344 18.761718-18.757813v-21.0625c.085938-10.367187-8.257812-18.8398432-18.625-18.914062-10.367187-.0742188-18.832031 8.273438-18.898437 18.640625v.273437 21.0625c.011719 10.355469 8.40625 18.75 18.761719 18.757813zm0 0"
     id="path6"
     style="fill:#525468;fill-opacity:1" />
  <path
     d="m74.335938 58.734375c10.355468-.007813 18.75-8.402344 18.761718-18.757813v-21.0625c.074219-10.363281-8.265625-18.8242182-18.625-18.898437-10.363281-.0742188-18.824218 8.261719-18.898437 18.625v.273437 21.0625c.011719 10.355469 8.402343 18.75 18.761719 18.757813zm0 0"
     id="path8"
     style="fill:#525468;fill-opacity:1" />
  <path
     d="m 0.0820312,339.22266 c 0.015625,14.86718 12.0624998,26.91015 26.9257808,26.92968 l 295.382808,0 c 14.86329,-0.0195 26.91016,-12.0625 26.92579,-26.92968 l 0,-197.59766 -349.2343788,0 z M 108.51953,241.55078 c 0.82031,-2.55078 3.02735,-4.41016 5.67969,-4.78906 l 37.5,-5.33985 16.74609,-33.26953 c 1.19141,-2.36328 3.60938,-3.85156 6.25391,-3.85156 2.64453,0 5.0625,1.48828 6.25,3.85156 l 16.74609,33.26563 37.5,5.33984 c 2.65625,0.37891 4.85938,2.23828 5.67969,4.78906 0.82031,2.55469 0.10937,5.35157 -1.82813,7.20313 l -27.05468,25.84766 5.60706,25.99617 c 0.45703,2.61719 -2.93661,-3.65155 -5.07724,-2.07734 -2.14062,1.57422 0.0541,1.02504 -2.30921,-0.18981 l -35.51358,2.86863 -27.75612,3.72522 c -2.36328,1.21484 -4.04732,3.31552 -6.18794,1.7413 -2.14063,-1.57422 -8.24939,-1.12357 -7.01661,-5.68013 l 3.6677,-26.38404 -27.05469,-25.84375 c -1.9375,-1.85157 -2.64843,-4.64844 -1.83203,-7.20313 z"
     id="path12"
     style="fill:#ea3f3f;fill-opacity:1"
     inkscape:connector-curvature="0"
     sodipodi:nodetypes="cccccccccccscccccccscccscccc" />
  <g
     id="g4249"
     transform="matrix(0.68304008,0,0,0.68304015,-0.33008826,143.16158)">
    <path
       id="path4213"
       d="m 0,68.738281 512,0 0,173.671879 -512,0 z m 0,0"
       inkscape:connector-curvature="0"
       style="fill:#525468" />
    <path
       id="path4217"
       d="m 160.13672,182.33203 -25.23047,-25.23047 c -0.84375,-0.84375 -0.84375,-2.21094 0,-3.05469 l 25.23047,-25.23046 c 0.84375,-0.84766 0.84375,-2.21485 0,-3.0586 l -17.36328,-17.36328 c -0.84375,-0.84375 -2.21485,-0.84375 -3.05469,0 L 114.48438,133.625 c -0.84375,0.84375 -2.21094,0.84375 -3.05469,0 L 86.195312,108.39453 c -0.84375,-0.84375 -2.210937,-0.84375 -3.054687,0 l -17.363281,17.36328 c -0.84375,0.84375 -0.84375,2.21094 0,3.05469 l 25.230468,25.23437 c 0.84375,0.84375 0.84375,2.21094 0,3.05469 l -25.230468,25.23047 c -0.84375,0.84375 -0.84375,2.21484 0,3.05469 l 17.363281,17.36719 c 0.84375,0.84375 2.210937,0.84375 3.054687,0 l 25.230468,-25.23047 c 0.84375,-0.84766 2.21485,-0.84766 3.05469,0 l 25.23437,25.23047 c 0.84375,0.84375 2.21094,0.84375 3.05469,0 l 17.36328,-17.36719 c 0.84766,-0.83985 0.84766,-2.21094 0.004,-3.05469 z m 0,0"
       inkscape:connector-curvature="0"
       style="fill:#e4e3e1" />
    <path
       id="path4227"
       d="m 303.17969,182.33203 -25.23047,-25.23047 c -0.84375,-0.84375 -0.84375,-2.21094 0,-3.05469 l 25.23047,-25.23046 c 0.84375,-0.84766 0.84375,-2.21485 0,-3.0586 l -17.36328,-17.36328 c -0.84375,-0.84375 -2.21485,-0.84375 -3.05469,0 L 257.52734,133.625 c -0.84375,0.84375 -2.21093,0.84375 -3.05468,0 l -25.23438,-25.23047 c -0.84375,-0.84375 -2.21094,-0.84375 -3.05469,0 l -17.36328,17.36328 c -0.84375,0.84375 -0.84375,2.21094 0,3.05469 l 25.23047,25.23437 c 0.84375,0.84375 0.84375,2.21094 0,3.05469 l -25.23047,25.23047 c -0.84375,0.84375 -0.84375,2.21484 0,3.05469 l 17.36328,17.36719 c 0.84375,0.84375 2.21485,0.84375 3.05469,0 l 25.23438,-25.23047 c 0.84375,-0.84766 2.21093,-0.84766 3.05468,0 l 25.23047,25.23047 c 0.84375,0.84375 2.21485,0.84375 3.05469,0 l 17.36719,-17.36719 c 0.84375,-0.83985 0.84375,-2.21094 0,-3.05469 z m 0,0"
       inkscape:connector-curvature="0"
       style="fill:#e4e3e1" />
    <path
       id="path4235"
       d="m 446.22266,182.33203 -25.23047,-25.23047 c -0.84375,-0.84375 -0.84375,-2.21094 0,-3.05469 l 25.23047,-25.23046 c 0.84375,-0.84766 0.84375,-2.21485 0,-3.0586 l -17.36329,-17.36328 c -0.84375,-0.84375 -2.21093,-0.84375 -3.05468,0 L 400.57031,133.625 c -0.84375,0.84375 -2.21094,0.84375 -3.05469,0 l -25.23046,-25.23047 c -0.84375,-0.84375 -2.21094,-0.84375 -3.05469,0 l -17.36719,17.36328 c -0.84375,0.84375 -0.84375,2.21485 0,3.0586 l 25.23438,25.23046 c 0.84375,0.84375 0.84375,2.21094 0,3.05469 l -25.23438,25.23047 c -0.84375,0.84375 -0.84375,2.21484 0,3.05469 l 17.36719,17.36719 c 0.84375,0.84375 2.21094,0.84375 3.05469,0 l 25.23046,-25.23047 c 0.84375,-0.84766 2.21485,-0.84766 3.05469,0 l 25.23438,25.23047 c 0.84375,0.84375 2.21093,0.84375 3.05468,0 l 17.36329,-17.36719 c 0.84375,-0.83985 0.84375,-2.21094 0,-3.05469 z m 0,0"
       inkscape:connector-curvature="0"
       style="fill:#e4e3e1" />
  </g>
</svg>
