<?xml version="1.0" encoding="UTF-8" standalone="no"?>
<svg
   xmlns:dc="http://purl.org/dc/elements/1.1/"
   xmlns:cc="http://creativecommons.org/ns#"
   xmlns:rdf="http://www.w3.org/1999/02/22-rdf-syntax-ns#"
   xmlns:svg="http://www.w3.org/2000/svg"
   xmlns="http://www.w3.org/2000/svg"
   xmlns:sodipodi="http://sodipodi.sourceforge.net/DTD/sodipodi-0.dtd"
   xmlns:inkscape="http://www.inkscape.org/namespaces/inkscape"
   width="2500"
   height="2500"
   viewBox="0 0 192.756 192.756"
   id="svg2"
   version="1.1"
   inkscape:version="0.91 r13725"
   sodipodi:docname="hogeschool-van-amsterdam.svg">
  <metadata
     id="metadata16">
    <rdf:RDF>
      <cc:Work
         rdf:about="">
        <dc:format>image/svg+xml</dc:format>
        <dc:type
           rdf:resource="http://purl.org/dc/dcmitype/StillImage" />
      </cc:Work>
    </rdf:RDF>
  </metadata>
  <defs
     id="defs14" />
  <sodipodi:namedview
     pagecolor="#ffffff"
     bordercolor="#666666"
     borderopacity="1"
     objecttolerance="10"
     gridtolerance="10"
     guidetolerance="10"
     inkscape:pageopacity="0"
     inkscape:pageshadow="2"
     inkscape:window-width="1920"
     inkscape:window-height="1017"
     id="namedview12"
     showgrid="false"
     inkscape:zoom="0.13350176"
     inkscape:cx="-463.83446"
     inkscape:cy="1521.478"
     inkscape:window-x="-8"
     inkscape:window-y="-8"
     inkscape:window-maximized="1"
     inkscape:current-layer="g4" />
  <g
     id="g4"
     clip-rule="evenodd"
     fill-rule="evenodd">
    <path
       d="M 1.9359082,97.436059 C 21.830738,75.552405 51.669683,63.123916 62.611511,63.123916 c 2.986538,0 3.48209,1.49327 3.48209,2.484377 0,0.997715 -1.493268,2.484376 -5.470912,4.968752 -7.955291,4.97536 -21.381494,13.928365 -21.381494,17.906009 0,0.495556 0.495552,0.991108 0.991108,0.991108 2.986537,0 32.825482,-18.401563 73.606327,-18.401563 7.9553,0 19.39929,2.484376 19.39929,7.459736 0,2.484375 -1.98883,4.473199 -7.45974,5.966468 -24.36804,3.977645 -46.251767,13.921759 -46.251767,18.897117 0,1.49988 0.991106,1.49988 2.484376,1.49988 3.984253,0 15.421626,-1.00433 23.377001,-1.00433 28.84123,0 34.31215,8.45085 34.31215,13.92176 0,12.93064 -32.82549,56.2024 -43.767395,68.13535 L 73.553338,147.15662 c 14.919472,-9.44856 31.827852,-25.8613 31.827852,-29.34339 0,-1.98882 -0.49556,-3.46887 -5.96649,-3.46887 -8.953069,0 -31.332276,4.46658 -39.783119,8.94639 L 51.676292,109.369 C 81.515236,86.996394 93.44817,86.494232 93.44817,83.507695 c 0,-0.991108 -1.493269,-1.988823 -4.97536,-1.988823 -16.406134,0 -48.240507,14.423927 -57.682461,20.383778 -1.493267,0.99111 -3.482089,0.99111 -3.482089,0.99111 -1.49327,0 -3.482093,-0.48894 -3.482093,-1.98883 0,-2.979919 4.968753,-10.446268 7.95529,-14.423913 1.493269,-1.988822 1.988823,-3.482092 1.988823,-3.977645 0,-0.991107 -0.502161,-1.49327 -0.997716,-1.49327 -3.475482,0 -18.897116,10.439668 -27.3545643,19.888228 z"
       id="path8"
       inkscape:connector-curvature="0"
       sodipodi:nodetypes="csscsssscssssccssccssccsssscc" />
    <path
       d="M 28.788312,69.57933 A 134.12988,134.12988 0 0 1 95.925945,51.679929 c 24.863655,0 47.745035,6.462019 67.633255,17.899401 L 184.45175,33.278368 C 158.09489,18.358894 128.25594,9.4058891 95.932545,9.4058891 64.104779,9.4058891 33.77028,18.352286 7.9089838,33.278368 L 28.788312,69.57933 Z"
       id="path10"
       inkscape:connector-curvature="0" />
  </g>
</svg>
